HIERARCHY
ROOT Hips
{
    OFFSET 0.000000 0.000000 0.000000
    CHANNELS 6 Xposition Yposition Zposition Zrotation Xrotation Yrotation
    JOINT Spine
    {
        OFFSET -0.000000 7.236184 0.000000
        CHANNELS 3 Zrotation Xrotation Yrotation
        JOINT Spine1
        {
            OFFSET -0.000000 20.420147 0.000000
            CHANNELS 3 Zrotation Xrotation Yrotation
            JOINT Neck
            {
                OFFSET -0.000000 20.336288 1.848754
                CHANNELS 3 Zrotation Xrotation Yrotation
                JOINT Head
                {
                    OFFSET -0.000000 12.354461 -1.764923
                    CHANNELS 3 Zrotation Xrotation Yrotation
                    End Site
                    {
                        OFFSET -0.000000 22.061537 0.000000
                    }
                }
            }
            JOINT LeftShoulder
            {
                OFFSET 3.573296 18.396038 -0.314103
                CHANNELS 3 Zrotation Xrotation Yrotation
                JOINT LeftArm
                {
                    OFFSET 10.880760 0.000000 0.000000
                    CHANNELS 3 Zrotation Xrotation Yrotation
                    JOINT LeftForeArm
                    {
                        OFFSET 27.185530 0.000000 0.000000
                        CHANNELS 3 Zrotation Xrotation Yrotation
                        JOINT LeftHand
                        {
                            OFFSET 27.825975 0.000000 0.000000
                            CHANNELS 3 Zrotation Xrotation Yrotation
                            End Site
                            {
                                OFFSET 13.236923 0.000000 0.000000
                            }
                        }
                    }
                }
            }
            JOINT RightShoulder
            {
                OFFSET -3.474926 18.396038 -0.314103
                CHANNELS 3 Zrotation Xrotation Yrotation
                JOINT RightArm
                {
                    OFFSET -10.880760 0.000000 0.000000
                    CHANNELS 3 Zrotation Xrotation Yrotation
                    JOINT RightForeArm
                    {
                        OFFSET -27.185530 0.000000 0.000000
                        CHANNELS 3 Zrotation Xrotation Yrotation
                        JOINT RightHand
                        {
                            OFFSET -27.825975 0.000000 0.000000
                            CHANNELS 3 Zrotation Xrotation Yrotation
                            End Site
                            {
                                OFFSET -13.236923 0.000000 0.000000
                            }
                        }
                    }
                }
            }
        }
    }
    JOINT LeftUpLeg
    {
        OFFSET 8.824615 0.000000 0.000000
        CHANNELS 3 Zrotation Xrotation Yrotation
        JOINT LeftLeg
        {
            OFFSET -0.000000 -35.111282 0.000000
            CHANNELS 3 Zrotation Xrotation Yrotation
            JOINT LeftFoot
            {
                OFFSET -0.000000 -42.324711 0.000000
                CHANNELS 3 Zrotation Xrotation Yrotation
                JOINT LeftToeBase
                {
                    OFFSET -0.000000 -5.735999 13.236923
                    CHANNELS 3 Zrotation Xrotation Yrotation
                    End Site
                    {
                        OFFSET -0.000000 0.000000 3.529846
                    }
                }
            }
        }
    }
    JOINT RightUpLeg
    {
        OFFSET -8.824615 0.000000 0.000000
        CHANNELS 3 Zrotation Xrotation Yrotation
        JOINT RightLeg
        {
            OFFSET -0.000000 -35.111282 0.000000
            CHANNELS 3 Zrotation Xrotation Yrotation
            JOINT RightFoot
            {
                OFFSET -0.000000 -42.324711 0.000000
                CHANNELS 3 Zrotation Xrotation Yrotation
                JOINT RightToeBase
                {
                    OFFSET -0.000000 -5.735999 13.236923
                    CHANNELS 3 Zrotation Xrotation Yrotation
                    End Site
                    {
                        OFFSET -0.000000 0.000000 3.529846
                    }
                }
            }
        }
    }
}
MOTION
Frames:    4
Frame Time:    0.008333
-6.928419    80.933975    113.260201    5.581639    -8.043777    -134.702698    -2.916956    -10.230631    0.776296    -1.986620    6.223346    1.145463    -0.865984    20.767071    -15.451888    22.079784    -0.198071    -13.001260    8.154305    6.293571    -9.938353    -31.881996    28.896360    -73.302933    -1.610672    -23.077576    -121.411171    22.936890    -24.316053    7.485544    -0.945381    11.531706    -2.075321    36.341125    -17.277805    7.891839    -4.677983    -27.571028    128.130371    1.254854    -18.707699    0.568245    -1.963937    -31.200153    -12.163411    4.646099    27.647121    -15.180839    -10.970335    -6.512686    -16.928318    1.997320    0.034113    -2.213774    -8.564414    -4.879887    -15.855326    16.061642    21.354471    -26.892979    0.000000    0.000000    0.000000    0.000000    0.000000    0.000000
-6.975749    80.981018    113.243988    5.832631    -8.084862    -133.476883    -2.885835    -10.225820    0.855970    -2.351298    6.112677    1.239757    -0.746798    21.032660    -15.626266    22.349445    -0.260742    -13.130841    8.334253    6.167514    -9.855060    -31.634100    28.899359    -73.471581    -1.684753    -22.801786    -121.313995    22.767118    -24.189833    7.370765    -1.543883    11.044777    -2.200133    34.801628    -17.220642    6.140742    -5.481208    -28.101553    126.214981    2.014163    -18.136032    0.441251    -2.151273    -31.371096    -12.396765    4.543779    27.262691    -15.840459    -11.105622    -6.242035    -17.178667    2.049259    0.049406    -2.271277    -8.446301    -4.642829    -15.817256    16.193872    20.984858    -27.329197    0.000000    0.000000    0.000000    0.000000    0.000000    0.000000
-7.023533    81.031372    113.227371    6.066793    -8.124389    -132.346466    -2.848856    -10.216652    0.944655    -2.743431    6.009060    1.343439    -0.628602    21.292727    -15.769368    22.623148    -0.309337    -13.228735    8.501694    6.038259    -9.769183    -31.426205    28.918015    -73.622597    -1.747786    -22.534945    -121.207565    22.599926    -24.053654    7.254168    -2.158279    10.556911    -2.261707    33.277275    -16.968441    4.583128    -6.333078    -28.622269    124.070297    2.767279    -17.617857    0.320617    -2.307168    -31.501505    -12.602387    4.414854    26.856291    -16.423016    -11.229438    -5.969739    -17.420944    2.099534    0.071893    -2.326902    -8.339809    -4.424600    -15.765932    16.306982    20.641685    -27.697033    0.000000    0.000000    0.000000    0.000000    0.000000    0.000000
-7.071501    81.084312    113.211075    6.285575    -8.163161    -131.308472    -2.806891    -10.203013    1.041451    -3.160236    5.913454    1.455348    -0.510949    21.543425    -15.882497    22.898375    -0.345924    -13.296343    8.656379    5.906171    -9.681554    -31.255745    28.953074    -73.755981    -1.800337    -22.280100    -121.094574    22.436642    -23.911440    7.136837    -2.780332    10.074418    -2.263948    31.783386    -16.517855    3.237760    -7.245113    -29.129358    121.674316    3.507682    -17.147455    0.221272    -2.435242    -31.595928    -12.784247    4.266488    26.432936    -16.936975    -11.339234    -5.698385    -17.649523    2.147836    0.100592    -2.380309    -8.245995    -4.226355    -15.713793    16.401251    20.328548    -27.993654    0.000000    0.000000    0.000000    0.000000    0.000000    0.000000
